<svg xmlns="http://www.w3.org/2000/svg" width="341" height="341" fill="none" viewBox="0 0 341 341"><circle cx="170.5" cy="170.5" r="170.5" fill="#081e2b"/><path fill="#00ed64" d="M193.21 70.47C182.39 57.7 173.08 44.65 171.18 42a.43.43 0 0 0-.7 0c-1.89 2.68-11.2 15.73-22 28.5-92.71 118.05 14.61 197.72 14.61 197.72l.87.61c.82 12.32 2.84 30 2.84 30h8.07s2-17.64 2.83-30l.88-.69s107.32-79.59 14.63-197.67m-22.37 196s-4.81-4.1-6.11-6.16v-.22l5.82-128.56a.32.32 0 0 1 .106-.183.314.314 0 0 1 .398 0 .32.32 0 0 1 .106.183L177 260.11v.22c-1.3 2-6.11 6.16-6.11 6.16"/></svg>