<svg xmlns="http://www.w3.org/2000/svg" width="70" height="70" fill="none" viewBox="0 0 70 70"><g clip-path="url(#a)"><path fill="#001834" d="M12.396.875h45.208A12.385 12.385 0 0 1 70 13.271v43.458a12.385 12.385 0 0 1-12.396 12.396H12.396A12.386 12.386 0 0 1 0 56.73V13.271A12.385 12.385 0 0 1 12.396.875"/><path fill="#00a9ff" d="M15.75 48.737V18.725c0-.204.088-.321.292-.321.495 0 .962 0 1.633-.03.7-.028 1.43-.028 2.217-.057s1.633-.03 2.537-.059 1.78-.029 2.654-.029c2.392 0 4.375.292 6.009.904A10.4 10.4 0 0 1 35 21.525a9.3 9.3 0 0 1 2.13 3.325c.437 1.225.67 2.479.67 3.791q0 3.763-1.75 6.213a10 10 0 0 1-4.696 3.558c-1.983.73-4.17.992-6.562.992-.7 0-1.167 0-1.459-.03-.291-.028-.7-.028-1.254-.028v9.362a.363.363 0 0 1-.32.409H16.1c-.233 0-.35-.117-.35-.38m6.358-24.704v9.8c.409.03.788.059 1.138.059h1.546c2.014 0 4.34-.474 5.746-2.071 1.21-1.375 1.213-4.101.233-5.6-1.163-1.78-3.49-2.295-5.483-2.246-.759 0-1.43 0-1.984.03a6.7 6.7 0 0 0-1.196.028M56 32.054a10.3 10.3 0 0 0-2.8-.992c-1.08-.233-2.158-.379-3.267-.379a5.9 5.9 0 0 0-1.75.204c-.379.088-.7.292-.904.584a1.55 1.55 0 0 0-.233.787c0 .263.117.525.292.759.262.32.612.583.991.787.671.35 1.371.671 2.071.963a21 21 0 0 1 4.492 2.129 6.8 6.8 0 0 1 2.304 2.42c.466.934.7 1.955.67 3.005A6.8 6.8 0 0 1 56.73 46.2a7.3 7.3 0 0 1-3.266 2.596c-1.43.612-3.18.933-5.28.933-1.341 0-2.654-.117-3.966-.379a11.8 11.8 0 0 1-2.975-.933c-.204-.117-.35-.321-.321-.555v-5.074c0-.088.03-.205.117-.263s.175-.03.262.03a12.5 12.5 0 0 0 3.617 1.428 13.6 13.6 0 0 0 3.441.438c1.109 0 1.896-.146 2.421-.409.467-.204.788-.7.788-1.225 0-.408-.234-.787-.7-1.166-.467-.38-1.43-.817-2.859-1.371a17.8 17.8 0 0 1-4.141-2.1 7.55 7.55 0 0 1-2.217-2.48 6.26 6.26 0 0 1-.67-2.974c0-1.254.35-2.45.99-3.53a7.2 7.2 0 0 1 3.063-2.683c1.371-.7 3.092-1.02 5.163-1.02 1.196 0 2.42.087 3.616.262.875.116 1.721.35 2.509.67.116.03.233.147.291.263.03.117.059.234.059.35v4.754a.36.36 0 0 1-.146.292c-.262.058-.408.058-.525 0"/></g><defs><clipPath id="a"><path fill="#fff" d="M0 0h70v70H0z"/></clipPath></defs></svg>